<?xml version="1.0" standalone="no"?>
<!DOCTYPE svg PUBLIC "-//W3C//DTD SVG 20010904//EN"
 "http://www.w3.org/TR/2001/REC-SVG-20010904/DTD/svg10.dtd">
<svg version="1.0" xmlns="http://www.w3.org/2000/svg"
 width="300.000000pt" height="110.000000pt" viewBox="0 0 300.000000 110.000000"
 preserveAspectRatio="xMidYMid meet">
<metadata>
Created by potrace 1.10, written by Peter Selinger 2001-2011
</metadata>
<g transform="translate(0.000000,110.000000) scale(0.100000,-0.100000)"
fill="#000000" stroke="none">
<path d="M195 1016 c-44 -20 -64 -46 -74 -103 -11 -53 -3 -102 21 -131 7 -8
37 -31 66 -49 67 -43 92 -83 92 -146 0 -73 -23 -108 -96 -145 -45 -23 -69 -47
-79 -81 -11 -37 -8 -167 5 -190 13 -26 49 -50 86 -59 16 -4 607 -7 1314 -7
1185 0 1288 1 1322 17 54 24 78 69 76 143 l-1 60 -6 -65 c-7 -67 -20 -99 -53
-119 -14 -8 -352 -11 -1343 -11 -1447 0 -1356 -4 -1383 56 -17 37 -15 159 3
195 11 19 35 39 71 56 72 34 97 70 102 148 5 76 -18 113 -103 164 -68 42 -85
67 -85 134 0 62 23 105 65 123 51 21 2609 21 2660 0 43 -18 65 -61 65 -125 0
-71 -15 -96 -90 -150 -74 -54 -100 -96 -100 -161 0 -59 31 -108 101 -159 33
-24 67 -53 76 -65 8 -12 13 -14 11 -6 -3 8 -37 42 -77 75 -85 70 -100 93 -101
155 0 59 24 96 99 154 73 56 91 88 91 158 0 66 -27 114 -75 134 -49 20 -2613
21 -2660 0z"/>
</g>
</svg>
